<svg xmlns="http://www.w3.org/2000/svg" viewBox="0 0 512 512">
  <rect width="512" height="512" rx="96" fill="#0A0A0A"/>
  <g transform="translate(256 256) scale(1.05) translate(-160.9 -218.35)">
    <path d="M28.6,49.7h146.5c34.3,0,61.6,8.3,81.9,25c20.3,16.7,30.5,37.8,30.5,63.4c0,38.1-22.3,63.9-66.8,77.3 c22.7,3.2,40.8,12.7,54.3,28.3c13.4,15.7,20.2,34.1,20.2,55.2c0,26.9-9.8,48.3-29.5,64.1c-19.7,15.8-47.2,23.8-82.4,23.8H28.6 V49.7z M110.7,112.1v73h53.8c11.8,0,21.4-3,28.6-9.1c7.2-6.1,10.8-15.1,10.8-27.1c0-12-3.6-21.1-10.8-27.4 c-7.2-6.2-16.7-9.4-28.6-9.4H110.7z M110.7,324.4h62c11.2,0,20.5-3.4,27.9-10.1c7.4-6.7,11-16,11-27.9c0-11.8-3.5-21.3-10.6-28.3 c-7-7-16.2-10.6-27.4-10.6h-62.9V324.4z" fill="#FF1198"/>
  </g>
</svg>